# xmcd
#
# Track frame offsets: 
#        150
#        18875
#        40172
#
# Disc length: 815 seconds
#
# Revision: 4
# Processed by: cddbd v1.5.2PL0 Copyright (c) Steve Scherf et al.
# Submitted via: ExactAudioCopy v1.1
#
DISCID=17032d03
DTITLE=嵐 - つなぐ 初回限定盤
DYEAR=2017
DGENRE=JPop
TTITLE0=つなぐ
TTITLE1=お気に召すまま
TTITLE2=お気に召すまま (オリジナル・カラオケ)
EXTD=
EXTT0=
EXTT1=
EXTT2=
PLAYORDER=
